<svg width="23" height="23" viewBox="0 0 23 23" fill="none" xmlns="http://www.w3.org/2000/svg">
<path d="M15 1L22 3.625V10.1875H18.5V20.6875C18.5 21.0356 18.3771 21.3694 18.1583 21.6156C17.9395 21.8617 17.6428 22 17.3333 22H5.66667C5.35725 22 5.0605 21.8617 4.84171 21.6156C4.62292 21.3694 4.5 21.0356 4.5 20.6875V10.1875H1V3.625L8 1C8 2.04429 8.36875 3.04581 9.02513 3.78423C9.6815 4.52266 10.5717 4.9375 11.5 4.9375C12.4283 4.9375 13.3185 4.52266 13.9749 3.78423C14.6313 3.04581 15 2.04429 15 1Z" stroke="white" stroke-width="2" stroke-linecap="round" stroke-linejoin="round"/>
</svg>
